<?xml version="1.0" encoding="UTF-8"?>
<svg
	xmlns="http://www.w3.org/2000/svg"
	xmlns:xlink="http://www.w3.org/1999/xlink"
	viewBox="0 0 64 64"
	width="64"
	height="64"
	role="img"
	aria-labelledby="title desc"
>
	<title id="title">PDF Signature</title>
	<desc id="desc">An app icon showing a PDF page with a folded corner and a handwritten signature.</desc>

	<!-- Background tile -->
	<rect x="4" y="4" width="56" height="56" rx="12" fill="#2563EB" />

	<!-- Paper with folded corner -->
	<g>
		<path
			d="M20 16h18l10 10v22c0 2.2-1.8 4-4 4H20c-2.2 0-4-1.8-4-4V20c0-2.2 1.8-4 4-4z"
			fill="#FFFFFF"
		/>
		<path
			d="M38 16v8c0 3.3 2.7 6 6 6h8l-14-14z"
			fill="#F3F4F6"
		/>
	</g>

	<!-- Signature stroke -->
	<path
		d="M18 42c3-2 6-2.2 8.5 0 2.5 2.2 4.8 1.8 8.2-1.2 3.4-3 6.9-5.3 9.4-2.8 1.2 1.2 0.5 3.2-1.2 3.6-3.5 0.9 3.3-6.8 6.4-4.6 2 1.4-1.5 6.7-4.8 7.8-4.6 1.6-10.9-0.6-13.8-0.6-4.4 0-7.5 2.4-12 2.8"
		fill="none"
		stroke="#1F2937"
		stroke-width="2.5"
		stroke-linecap="round"
		stroke-linejoin="round"
	/>

	<!-- Subtle page shadow for depth (kept minimal for clarity) -->
	<path
		d="M20 16h18l10 10v1H44c-4.4 0-8-3.6-8-8v-3H20c-1.1 0-2 .9-2 2v0c0-1.1.9-2 2-2z"
		fill="#000"
		opacity=".05"
	/>

	<!-- Optional PDF label dots (very subtle) -->
	<g fill="#E53935" opacity=".9">
		<circle cx="24" cy="28" r="1" />
		<circle cx="28" cy="28" r="1" />
		<circle cx="32" cy="28" r="1" />
	</g>
</svg>